Coordinates
version=1
nRows=7
nColumns=40
inDegrees=yes

Units are S.I. units (second, meters, Newtons, ...)
Angles are in degrees.

endheader
time	pelvis_tilt	pelvis_list	pelvis_rotation	pelvis_tx	pelvis_ty	pelvis_tz	hip_flexion_r	hip_adduction_r	hip_rotation_r	knee_angle_r	knee_angle_r_beta	ankle_angle_r	subtalar_angle_r	mtp_angle_r	hip_flexion_l	hip_adduction_l	hip_rotation_l	knee_angle_l	knee_angle_l_beta	ankle_angle_l	subtalar_angle_l	mtp_angle_l	lumbar_extension	lumbar_bending	lumbar_rotation	arm_flex_r	arm_add_r	arm_rot_r	elbow_flex_r	pro_sup_r	wrist_flex_r	wrist_dev_r	arm_flex_l	arm_add_l	arm_rot_l	elbow_flex_l	pro_sup_l	wrist_flex_l	wrist_dev_l
      4.16000000	     -5.20460645	     -3.78632042	      2.21998724	      0.93216436	      0.93248269	      0.42725432	     28.41499801	     -7.71310091	     -6.56023753	     68.97368129	     68.97368129	      3.83375156	    -15.28705565	      1.92712820	     16.21510315	     -2.90131460	     -7.43183726	     21.75748745	     21.75748745	     13.92120329	     -6.05103387	      2.47045009	     -8.50992307	      4.76315159	      2.89697810	     10.28963419	    -13.10051838	     -1.10023994	     29.84114454	     45.75331238	      0.00000000	      0.00000000	      8.39151387	    -13.01775795	     -5.54559450	     59.60328935	     46.09349290	      0.00000000	      0.00000000
      4.17300000	     -5.14301856	     -3.68621185	      1.93501505	      0.93116098	      0.93368400	      0.42732634	     29.76234192	     -7.74595803	     -6.39320583	     68.09124572	     68.09124572	      3.93540575	    -14.99284754	      1.77506757	     15.03518523	     -2.78104250	     -7.71687786	     20.72023306	     20.72023306	     14.08929473	     -5.78615071	      2.64992373	     -8.71682157	      4.58045426	      2.89709894	      8.22831104	    -13.34456451	     -1.10874566	     28.86311672	     45.78313063	      0.00000000	      0.00000000	      9.39722394	    -13.28744641	     -5.97579736	     60.72670737	     46.16164129	      0.00000000	      0.00000000
      4.18600000	     -4.98952260	     -3.57012985	      1.61380883	      0.93023657	      0.93487549	      0.42748926	     30.90313903	     -7.74162285	     -6.18966277	     67.00136633	     67.00136633	      3.94965413	    -14.66412799	      1.60046957	     13.76151888	     -2.64155695	     -8.01040330	     19.70229616	     19.70229616	     14.23353897	     -5.59345412	      2.77965205	     -9.05714391	      4.37908503	      3.02705745	      6.10119515	    -13.61036484	     -1.19145945	     28.03851514	     45.81231718	      0.00000000	      0.00000000	     10.34303595	    -13.54082340	     -6.54888155	     62.31538808	     46.25005176	      0.00000000	      0.00000000
      4.19900000	     -4.86687785	     -3.46503296	      1.30262414	      0.92934629	      0.93586696	      0.42765264	     31.92491130	     -7.71242285	     -6.00728999	     65.61868630	     65.61868630	      3.82392734	    -14.30944341	      1.12363712	     12.54082994	     -2.47250457	     -8.16779054	     18.68373938	     18.68373938	     14.23443554	     -5.63988031	      2.68851477	     -9.39420855	      4.18760124	      2.87872758	      3.98781111	    -13.77429462	     -1.68450905	     27.81157549	     45.85966235	      0.00000000	      0.00000000	     10.71072899	    -13.83303996	     -7.61621269	     64.94694792	     46.42175870	      0.00000000	      0.00000000
      4.21200000	     -4.70268190	     -3.33779138	      0.94909484	      0.92854790	      0.93682280	      0.42796423	     32.76683947	     -7.62741644	     -5.75424601	     63.94598745	     63.94598745	      3.82198941	    -13.92270489	      1.16013707	     11.23602426	     -2.30511777	     -8.52128262	     17.60702134	     17.60702134	     14.36036107	     -5.38247734	      2.79385607	     -9.70188823	      3.98116712	      2.91511424	      2.03666466	    -13.96059668	     -1.80500973	     27.10346928	     45.88861679	      0.00000000	      0.00000000	     11.59079262	    -14.10164841	     -8.17631244	     66.22995340	     46.50364685	      0.00000000	      0.00000000
      4.22500000	     -4.57478893	     -3.24704970	      0.59605401	      0.92772230	      0.93756657	      0.42836760	     33.48524350	     -7.49165265	     -5.54004995	     61.91116608	     61.91116608	      3.78508016	    -13.40622019	      1.24187541	     10.01194237	     -2.16173105	     -8.79812709	     16.57968353	     16.57968353	     14.48092767	     -5.20155840	      2.90485584	     -9.96814379	      3.82214608	      2.98024365	      0.10900722	    -14.13573642	     -1.97180271	     26.51445784	     45.91507510	      0.00000000	      0.00000000	     12.35711000	    -14.31513476	     -8.74473226	     67.64968516	     46.58374861	      0.00000000	      0.00000000
      4.23800000	     -4.46493947	     -3.12182576	      0.23269588	      0.92685452	      0.93799153	      0.42888667	     34.06759494	     -7.38334836	     -5.34659395	     59.50675588	     59.50675588	      3.61985068	    -12.84855176	      0.82070497	      8.85490584	     -1.94482885	     -8.89440707	     15.60514606	     15.60514606	     14.45308485	     -5.41736658	      2.79705671	    -10.28653482	      3.59359614	      2.82582992	     -1.83863857	    -14.20105070	     -2.94938167	     26.76370879	     45.98424468	      0.00000000	      0.00000000	     12.53026218	    -14.51635057	    -10.01971914	     70.36276305	     46.76981987	      0.00000000	      0.00000000
